<svg xmlns="http://www.w3.org/2000/svg" width="10.455" height="10" viewBox="0 0 10.455 10">
  <g id="briefcase-24" transform="translate(-1 -2)">
    <path id="Path_61" data-name="Path 61" d="M8.909,34.455a.227.227,0,0,1-.227.227H6.864a.227.227,0,0,1-.227-.227V34H3v2.273a.454.454,0,0,0,.455.455h8.636a.454.454,0,0,0,.455-.455V34H8.909Z" transform="translate(-1.545 -24.727)" fill="#111"/>
    <path id="Path_62" data-name="Path 62" d="M11,10H1.455A.454.454,0,0,0,1,10.455v4.318A.227.227,0,0,0,1.227,15H5.091v-.455a.227.227,0,0,1,.227-.227H7.136a.227.227,0,0,1,.227.227V15h3.864a.227.227,0,0,0,.227-.227V10.455A.454.454,0,0,0,11,10Z" transform="translate(0 -6.182)" fill="#111"/>
    <path id="Path_63" data-name="Path 63" d="M16.455,2.455h2.727v.909h.455V2.227A.227.227,0,0,0,19.409,2H16.227A.227.227,0,0,0,16,2.227V3.364h.455Z" transform="translate(-11.591)" fill="#111"/>
  </g>
</svg>
