<svg xmlns="http://www.w3.org/2000/svg" width="18" height="18" viewBox="0 0 18 18">
  <path id="Path_2087" data-name="Path 2087" d="M2.635-5.269A8.662,8.662,0,0,1,9-7.91a8.662,8.662,0,0,1,6.365,2.641A8.679,8.679,0,0,1,18,1.09a8.679,8.679,0,0,1-2.635,6.359A8.662,8.662,0,0,1,9,10.09,8.662,8.662,0,0,1,2.635,7.449,8.679,8.679,0,0,1,0,1.09,8.679,8.679,0,0,1,2.635-5.269ZM12.815,6.5,11.8,2.146l3.33-2.915-4.426-.38L8.979-5.206l-1.728,4.1L2.824-.769,6.2,2.146,5.185,6.5,8.979,4.217Z" transform="translate(0 7.91)" fill="#9703fc"/>
</svg>
