<svg xmlns="http://www.w3.org/2000/svg" width="36" height="40.744" viewBox="0 0 36 40.744">
  <g id="Group_2874" data-name="Group 2874" transform="translate(-64 -176)">
    <g id="Group_2873" data-name="Group 2873">
      <path id="Union_23" data-name="Union 23" d="M-1289.811,915.782A18,18,0,0,1-1305,898a18,18,0,0,1,18-18,18,18,0,0,1,18,18,18.006,18.006,0,0,1-14.662,17.691l-3.1,5.053Z" transform="translate(1369 -704)"/>
    </g>
    <path id="Union_24" data-name="Union 24" d="M-1246.334,841.905v-6.638c-.331-.048-.638-.072-.936-.138a4.261,4.261,0,0,1-3.354-4.176c-.005-1.347,0-2.694,0-4.041v-.218h2.146v.288q0,1.92,0,3.84a2.144,2.144,0,0,0,2.28,2.279q1.288,0,2.576,0,1.824,0,3.649,0a4.25,4.25,0,0,1,4.283,3.587,4.026,4.026,0,0,1,.06.7c.005,1.355,0,2.711,0,4.066,0,.057-.007.114-.013.188h-2.134v-.273c0-1.339.009-2.677,0-4.015a2.126,2.126,0,0,0-1.963-2.106c-.048,0-.1,0-.183,0v6.658Zm3.046-10.954a3.233,3.233,0,0,1-3.007-2.664,3.222,3.222,0,0,1,2.588-3.708,1.339,1.339,0,0,0,.162-.051h.8a7.942,7.942,0,0,1,1.063.354,3.185,3.185,0,0,1,1.658,3.67,3.207,3.207,0,0,1-3.132,2.4Z" transform="translate(1324.626 -639.529)" fill="#fff" stroke="rgba(0,0,0,0)" stroke-width="1"/>
  </g>
</svg>
