<svg xmlns="http://www.w3.org/2000/svg" width="16.033" height="18" viewBox="0 0 16.033 18">
  <path id="Subtraction_1" data-name="Subtraction 1" d="M-3223.983,1652a1.668,1.668,0,0,1-.831-.222l-6.355-3.67a1.665,1.665,0,0,1-.831-1.438v-7.339a1.667,1.667,0,0,1,.831-1.439l6.355-3.669a1.669,1.669,0,0,1,.831-.222,1.668,1.668,0,0,1,.831.222l6.355,3.669a1.668,1.668,0,0,1,.831,1.439v7.339a1.666,1.666,0,0,1-.831,1.438l-6.355,3.67A1.666,1.666,0,0,1-3223.983,1652Zm-3.165-9.852a.438.438,0,0,0-.322.134l-.647.646a.441.441,0,0,0-.133.323.439.439,0,0,0,.133.323l2.31,2.31.646.647a.444.444,0,0,0,.323.133.443.443,0,0,0,.323-.133l.646-.647,5.208-5.208a.442.442,0,0,0,.133-.323.443.443,0,0,0-.133-.323l-.646-.646a.44.44,0,0,0-.323-.134.443.443,0,0,0-.324.134l-4.885,4.89-1.987-1.991A.44.44,0,0,0-3227.147,1642.148Z" transform="translate(3232 -1634)" fill="#9703fc"/>
</svg>
